<svg width="14" height="14" viewBox="0 0 14 14" fill="none" xmlns="http://www.w3.org/2000/svg">
<path d="M12.3433 1.24264L6.02583 7.58347C5.95341 7.54151 5.87725 7.50636 5.79833 7.47847L1.6275 6.0668C1.50136 6.03519 1.38941 5.96234 1.30942 5.85982C1.22942 5.75731 1.18597 5.631 1.18597 5.50097C1.18597 5.37093 1.22942 5.24463 1.30942 5.14211C1.38941 5.0396 1.50136 4.96675 1.6275 4.93514L11.9758 1.2543C12.0435 1.23133 12.1144 1.21951 12.1858 1.2193C12.2393 1.21844 12.2925 1.22632 12.3433 1.24264Z" fill="#84829A"/>
<path d="M12.7459 2.02424L9.06503 12.3842C9.02444 12.505 8.94545 12.6091 8.84012 12.6807C8.73478 12.7524 8.6089 12.7875 8.4817 12.7809C8.35303 12.7868 8.22602 12.7499 8.1205 12.6761C8.01498 12.6022 7.93687 12.4955 7.89836 12.3726L6.51003 8.20174C6.48214 8.12282 6.44699 8.04666 6.40503 7.97424L12.7575 1.65674C12.7934 1.77729 12.7893 1.9062 12.7459 2.02424Z" fill="#84829A"/>
</svg>
