<svg width="36" height="36" viewBox="0 0 36 36" fill="none" xmlns="http://www.w3.org/2000/svg">
<path d="M27.0847 34C26.6446 33.9996 26.2146 33.8673 25.8498 33.62L18.4208 28.62C18.3842 28.5946 18.3408 28.581 18.2963 28.581C18.2518 28.581 18.2084 28.5946 18.1718 28.62L10.7428 33.62C10.3697 33.8701 9.92972 34.0004 9.48121 33.9935C9.03269 33.9866 8.59688 33.8428 8.23164 33.5813C7.8664 33.3198 7.58903 32.9529 7.43634 32.5294C7.28366 32.1058 7.26289 31.6457 7.3768 31.21L9.81664 22.57C9.82817 22.5266 9.82677 22.4807 9.81261 22.438C9.79845 22.3954 9.77216 22.3578 9.73697 22.33L2.70626 16.78C2.33614 16.5031 2.0616 16.1169 1.92112 15.6754C1.78064 15.2339 1.78128 14.7594 1.92294 14.3183C2.0646 13.8772 2.34018 13.4917 2.71104 13.2158C3.0819 12.94 3.52944 12.7876 3.99091 12.78L12.9536 12.44C12.9976 12.4369 13.0399 12.4212 13.0752 12.3945C13.1106 12.3679 13.1375 12.3316 13.1527 12.29L16.2399 3.86C16.3955 3.43263 16.6781 3.06361 17.0495 2.80289C17.4209 2.54217 17.8631 2.40234 18.3162 2.40234C18.7694 2.40234 19.2116 2.54217 19.5829 2.80289C19.9543 3.06361 20.237 3.43263 20.3926 3.86L23.4797 12.29C23.495 12.3316 23.5219 12.3679 23.5572 12.3945C23.5926 12.4212 23.6348 12.4369 23.6789 12.44L32.6415 12.78C33.103 12.7876 33.5505 12.94 33.9214 13.2158C34.2923 13.4917 34.5679 13.8772 34.7095 14.3183C34.8512 14.7594 34.8518 15.2339 34.7113 15.6754C34.5708 16.1169 34.2963 16.5031 33.9262 16.78L26.8955 22.33C26.8592 22.3569 26.8321 22.3944 26.8179 22.4373C26.8036 22.4803 26.8029 22.5266 26.8158 22.57L29.2556 31.21C29.3413 31.5414 29.3498 31.8882 29.2805 32.2234C29.2112 32.5586 29.0659 32.8733 28.856 33.1431C28.6461 33.4129 28.3771 33.6305 28.0699 33.7791C27.7628 33.9277 27.4256 34.0033 27.0847 34ZM18.3013 26.58C18.7423 26.5935 19.169 26.7399 19.5262 27L26.9552 32C26.9929 32.0287 27.0388 32.0445 27.0861 32.0448C27.1333 32.0452 27.1795 32.0302 27.2176 32.0021C27.2557 31.974 27.2837 31.9342 27.2974 31.8888C27.3112 31.8433 27.3099 31.7946 27.2938 31.75L24.854 23.11C24.7339 22.6862 24.7428 22.236 24.8794 21.8172C25.0161 21.3985 25.2742 21.0303 25.6208 20.76L32.6515 15.21C32.6898 15.1829 32.7186 15.1443 32.7334 15.0996C32.7482 15.055 32.7484 15.0067 32.7339 14.962C32.7194 14.9172 32.691 14.8783 32.6529 14.8509C32.6148 14.8236 32.5689 14.8092 32.522 14.81L23.5594 14.47C23.1205 14.4528 22.6967 14.3048 22.342 14.0447C21.9873 13.7847 21.7177 13.4245 21.5677 13.01L18.4805 4.58C18.4666 4.53524 18.4388 4.49611 18.4012 4.46833C18.3636 4.44055 18.3181 4.42557 18.2714 4.42557C18.2247 4.42557 18.1792 4.44055 18.1416 4.46833C18.104 4.49611 18.0762 4.53524 18.0623 4.58L15.005 13C14.855 13.4145 14.5854 13.7747 14.2307 14.0347C13.876 14.2948 13.4522 14.4428 13.0133 14.46L4.05066 14.8C4.0038 14.7992 3.95793 14.8136 3.91979 14.8409C3.88165 14.8683 3.85325 14.9072 3.83877 14.952C3.82428 14.9967 3.82447 15.045 3.83931 15.0896C3.85414 15.1343 3.88285 15.1729 3.9212 15.2L10.9619 20.76C11.3074 21.0312 11.5648 21.3994 11.7013 21.8179C11.8378 22.2363 11.8474 22.6861 11.7287 23.11L9.29879 31.75C9.28429 31.7933 9.28422 31.8401 9.2986 31.8834C9.31297 31.9267 9.34101 31.9641 9.37846 31.99C9.41454 32.021 9.46045 32.038 9.50792 32.038C9.5554 32.038 9.60131 32.021 9.63738 31.99L17.0664 26.99C17.4295 26.7482 17.8556 26.6194 18.2913 26.62L18.3013 26.58Z" fill="#FF7A00"/>
</svg>
